<svg id="Camada_1" data-name="Camada 1" xmlns="http://www.w3.org/2000/svg" viewBox="0 0 282.59 77.14"><defs><style>.cls-1{fill:#00983a;}.cls-2{fill:#1d1d1b;}</style></defs><path class="cls-1" d="M294.45,296.18H195.12a14.07,14.07,0,0,0-.1-1.58c-.55-5.1-3-8.29-2.51-8.62s3.77,3.55,4.2,3.22-1.26-2.64-1-2.84,2.36,2.39,3.22,3.11c1.24,1.06,2.39-4,3.16-3.82s.28,3.48,1.14,3.71,2.56-3.4,3.17-3.16-.46,2.82.27,3.27c1.14.71,4.84-4.85,6.87-4,1.58.63,1,4.6,2.08,4.8,1.31.25,3.21-5.23,4.14-5,.65.19.07,2.94.93,3.27,1.07.42,2.91-3.49,4.42-3.11,1.29.33,1.39,3.58,1.91,3.55s.58-4.13,1.25-4.2,1,3.8,2.46,4,3.19-3.66,3.81-3.39-.75,2.92.06,3.6c1.52,1.3,9-5.69,10-4.74.73.69-1.4,4-.67,4.75,1,1,5.72-4.53,6.79-3.93.49.27.87,3.68,1.38,3.93,1.28.63,1.09-4.81,2.57-4.26.17.06,1.35,2.75,1.93,2.33-.23-1.11-.93-3.91-.55-4.13.88-.5,3.95,3.7,4.59,3.27s-1.05-3.15-.55-3.49c.68-.46,3.83,4.53,6,3.87,1.56-.46,1.76-3.59,2.35-3.54.41,0-.41,3,.54,3.6,1.4.85,5.62-4,6.22-3.49s-1.73,3.26-1.2,3.76c.73.69,5.77-3.85,6.55-3.11.46.45-1,2.48-.55,2.84.6.49,3.63-3.08,5-2.35.94.5.6,2.69,1,2.73s.9-4,2-4.14,2.06,2.95,2.34,2.83-.54-2.2-.16-2.4.87.44,1.62,1.09l1.93,2c2.72,3,4.74-4.85,6.78-1.31,0-.17,6.66,11.06,5.83,11.06" transform="translate(-189.65 -219.08)"/><path class="cls-1" d="M471.82,284.74c-1.12-1.17-7.89,3.64-8.66,2.61-.5-.67,2-3.26,1.68-3.63-.52-.54-5.89,4.5-7.06,3.56-.74-.6.72-3.19.15-3.56S455.82,285,454,287a.34.34,0,0,1-.54,0c-1-1.43-1.95-2.58-2.3-2.41-.52.26.76,3.36.22,3.64-.76.39-4.29-5.28-4.87-5-.4.23.94,3.05.44,3.35s-2.4-3.15-4.15-2.84c-.79.14-1,2.23-1.73,2.77,0-.06,0,.31-.92-.89-.51-.67-1.13,0-5,2.61a.18.18,0,0,1-.27-.2c.91-2.55.93-3.45.62-3.64-.81-.47-3.81,3.91-4.88,3.35-.47-.25-.4-1.37-.14-2.69a.17.17,0,0,0-.29-.14c-2.46,2.87-3.37,3.52-3.64,3.34s.66-1.85.07-2.47c-1-1.05-5.29,1.86-5.81,1.16-.41-.54,1.9-2.6,1.52-3.13-.56-.78-6.29,2.92-7.05,2-.51-.64,1.52-2.95,1.16-3.28s-4,3.47-5.31,2.69c-1-.56-.35-3.3-.65-3.34s-.88,4.24-2.11,4.36c-1,.11-2-2.87-2.62-2.69s0,2.72-.51,2.84-1.33-2.91-2.25-2.84-1.21,4.29-1.89,4.07.31-1.88-.44-2.47c-1.25-1-5.05,2.28-5.67,1.6-.39-.43.93-1.94.58-2.33-.66-.71-6.09,3.69-6.76,3-.5-.52,2-3.46,1.6-3.79s-5.67,5.15-6.91,4.3c-.9-.62.67-4.29.14-4.51s-1.4,2.86-3.27,3.12c-2.2.32-4.25-3.44-5-3-.57.34.4,2.53-.14,2.84-.73.41-3.08-3.25-3.93-2.84-.34.17.49,1.88.09,2.61-.07.33-.95-.56-1-.58-1.31-.59-3.62,2.83-4,2.55s1.58-2.62,1.16-3-4.41,2.83-5.31,2c-.45-.4.15-1.53-.22-1.75-.65-.38-3.1,2.73-3.34,2.55s1.62-2.49,1.16-3-3.63,1.75-4.14,1.17,1.11-2.15.8-2.48c-.52-.53-5,3.39-5.68,2.77-.38-.36.9-1.93.51-2.33-.75-.79-6.51,4.27-7.63,3.27-.74-.65.9-3.56.5-3.78s-2.62,4.17-4.5,3.86c-1.34-.23-1.92-2.74-2.26-2.62s0,2.4-.16,2.74c-.38.67-2.2-4.44-3.18-4.2-.7.18-.47,3.24-.88,3.28s-.52-3.22-1.67-3.49c-1.44-.35-3.65,4.14-4.22,3.85-.27-.14,1.22-2.95-.93-1.94s-3.3,3.66-5.9-1.9c-.17-.37-.69-.11-.85.26-1.12,2.59-6.77,10.19-6.43,12.77H465.75C471.52,288.8,472.42,285.36,471.82,284.74Z" transform="translate(-189.65 -219.08)"/><path class="cls-2" d="M190,226.61l-.39-.27,4.09-7.17,24.25-.09,1,2c.49,1.08,1.27,2.78,1.76,3.77l.87,1.79-.48.18c-2.24,1.26-4.19,4-5.36,7.45l-.39,1.34v32.66l.39,1.16c1.56,4.58,7.6,5.92,12.27,5.92a12.76,12.76,0,0,0,8-2.78,15.3,15.3,0,0,0,2.92-2.78c0-.18.39-.09.58.18s7.5,8.88,8.08,9.42c.2.36-2.82,1.53-5.35,2.06s-4.68.54-26.29.54H194.42l-.29-.54c-1.26-2.15-4.28-7.62-4.19-7.71s.49-.18.88-.36a9.83,9.83,0,0,0,5.36-6.46c.29-1.34.48-17.31.29-25.38l-.1-5.93-.48-1.34a14.35,14.35,0,0,0-4.58-6.55C190.82,227.24,190.24,226.79,190,226.61Z" transform="translate(-189.65 -219.08)"/><path class="cls-2" d="M273,277.66l-1.85,4.12H260.74l-10.42.09-1.75-4.66.78-1a13.69,13.69,0,0,0,1.16-1.79l.49-.81.1-6.91V251.55c-.1-7.35-.1-8.25-.39-9a7.3,7.3,0,0,0-2.34-3.05c-.39-.36-.68-.63-.68-.72a28.74,28.74,0,0,1,1.85-3.4s4.58,2.51,10.23,5.56l10.12,5.65v26.91l.49,1.08a8.26,8.26,0,0,0,1.66,2.06Zm-22.79-47a9.9,9.9,0,0,1,0-4.13,10.08,10.08,0,0,1,5.36-6.54,12,12,0,0,1,4.77-.9c5.65,0,9.84,4.13,9.84,9.42A9.83,9.83,0,0,1,262.3,238a12.49,12.49,0,0,1-4.48,0A10,10,0,0,1,250.22,230.65Z" transform="translate(-189.65 -219.08)"/><path class="cls-2" d="M320.24,290.75l.48.81-1.11,4a.79.79,0,0,1-.77.59H310.2c-3.95,0-7.47.06-8.74,0a.81.81,0,0,1-.73-.51c-.18-.47-.47-1.3-.84-2.42,0,0,0,0,0-.05L299,290l.49-.63a6.42,6.42,0,0,0,.87-1.8l.43-1a.85.85,0,0,0,.06-.31v-8.78a.81.81,0,0,0-.75-.8l-1.78-.13c-11.11-1.17-21.14-8.52-23.18-19a17.52,17.52,0,0,1,.1-7.8,18.7,18.7,0,0,1,6.23-10.32c3.41-2.87,8.37-5,11.39-5a10.18,10.18,0,0,1,7.4,3.5c.49.63.78,1,1,.89a2.53,2.53,0,0,0,.58-1.07,9.13,9.13,0,0,1,1.37-2.24l.73-1a.84.84,0,0,1,.63-.31l5.55-.08h8.37a.8.8,0,0,1,.76.56l1.46,4.69a.83.83,0,0,1-.14.73l-.49.62-.05.08a14,14,0,0,0-1.24,2.38l-.54,1.39a.87.87,0,0,0-.05.28l-.1,8.38c-.19,12.56,0,32.11.3,33.37A13.13,13.13,0,0,0,320.24,290.75ZM300.66,268v-9.69l-.09-9.55a.86.86,0,0,0-.05-.27l-.44-1.21a8.65,8.65,0,0,0-2.82-3.95c-.69-.54-.88-.54-1.86-.45-3.6.27-6.23,5.11-6.52,11.93a26.83,26.83,0,0,0,1.74,10.55l0,.08c.9,1.71,3.8,5.16,6.12,5.16a4.55,4.55,0,0,0,1.86-.5.65.65,0,0,0,.16-.09,6.68,6.68,0,0,0,1.39-1.29Z" transform="translate(-189.65 -219.08)"/><path class="cls-2" d="M371.94,278.37v3.14h-6.71c-6.63,0-6.82,0-7.31-.35a2.89,2.89,0,0,1-.88-.54c-.29-.27-.38-.27-1.75.09a30.86,30.86,0,0,1-7.79.89c-1.95,0-4.28,0-5.16-.09-5.84-.53-13.63-3.31-15.58-9-.39-1.16-.49-6.28-.49-17.85-.1-8.7-.1-9.42-.39-10.58a9.7,9.7,0,0,0-2.24-4.85c-.48-.45-.48-.54-.29-1,.1-.27.59-1.26,1-2.25l.69-1.7h18.6l1,2.42c.58,1.35,1.07,2.51,1.07,2.51s-.19.27-.49.45a6,6,0,0,0-1.94,2.78c-.3.81-.3,1.35-.39,13.37-.1,11.39-.1,12.65.09,13.63.69,2.69,2.54,4.67,4.48,4.67a4.53,4.53,0,0,0,2.24-1.17c.88-.72,1.46-1.88,2.15-4,.48-1.35.58-5.66.48-17-.09-8.43-.09-9-.39-9.87a7,7,0,0,0-1.65-2.69l-.59-.54,2.15-4.48h17.82l2.14,4.75-.68.72a10.71,10.71,0,0,0-2.34,4.22c-.19.71-.29,3.14-.29,16l-.1,15.08.39.71a5.41,5.41,0,0,0,2.53,2.25Z" transform="translate(-189.65 -219.08)"/><path class="cls-2" d="M393.46,261.51a17.19,17.19,0,0,0,1,3.59,12.26,12.26,0,0,0,3.31,5,7.72,7.72,0,0,0,5.16,2.51,13,13,0,0,0,3.8,0,1.91,1.91,0,0,1,.78-.18,9.23,9.23,0,0,0,3-3,21.34,21.34,0,0,0,2.73-6.46c.1-.35.2-.71.39-.71a22.41,22.41,0,0,1,1.85,1.52c.88.72,2.83,2.42,4.29,3.68l2.53,2.15-.1.63a7.09,7.09,0,0,1-1.95,3.5c-3.7,3.68-10.22,6.64-16.45,7.53a44.88,44.88,0,0,1-7.6.27c-11.2-1.52-19.48-7.62-21.62-18.3a24.87,24.87,0,0,1,.1-8.07c2.24-11.39,12.76-19.65,25.12-20.9a16.72,16.72,0,0,1,5.07-.18c9,.72,17.53,6.55,18.5,15.25a3.9,3.9,0,0,1-.49,3.32c-2.33,4.57-8.57,8.25-16.26,9.69a30.85,30.85,0,0,1-4.77.27,22.07,22.07,0,0,1-7-.81A5.25,5.25,0,0,0,393.46,261.51Zm.3-5.56c.09,0,1.26-.36,2.43-.72,4.28-1.44,10.32-3.77,12.46-7.8,1-2,1.17-3.86.49-5.21-.29-.54-.49-.63-1.17-.8a3.73,3.73,0,0,0-2.43,0c-2.83.62-5.75,3.05-8.47,7C395.22,251,393.07,256,393.76,256Z" transform="translate(-189.65 -219.08)"/><path class="cls-2" d="M472.24,275.86l-1.75,6-8.47-.09h-8.38L452,276.22l.58-.72a9.72,9.72,0,0,0,.88-1.7l.39-1,.09-12.65c.1-11.39.1-12.73-.09-13.63-.68-2.78-2.53-4.67-4.48-4.67a4.27,4.27,0,0,0-2.24,1.08,9,9,0,0,0-2.14,4c-.49,1.34-.59,5.65-.49,17.13.1,9,.1,9.06.39,10.05a6.36,6.36,0,0,0,1,1.79l.49.81-.78,2.51c-.39,1.44-.68,2.51-.68,2.6H428.13c0-.09-.39-1.43-.78-3.23l-.88-3.05.69-1.25c1.16-2.24,1.16-1.26,1.16-18.3.1-14.62.1-15.16-.19-15.7-.2-.27-.59-.81-.88-1.17a1.72,1.72,0,0,1-.48-.71c0-.09.39-1,.87-2.07l.78-1.88,4.77-.09c2.63,0,5,0,5.16.09a2.93,2.93,0,0,1,1.07.54l.69.53,1.36-.35a28.53,28.53,0,0,1,7.3-.9c6.24-.18,10.33.54,14.32,2.33,3.7,1.8,6,4.13,6.91,6.82.39,1.17.49,6.28.49,17.85.1,10.59.1,10.68,1.17,13.28Z" transform="translate(-189.65 -219.08)"/><path class="cls-1" d="M323.31,296.18" transform="translate(-189.65 -219.08)"/><path class="cls-1" d="M323.31,296.18" transform="translate(-189.65 -219.08)"/></svg>